<svg width="1200" height="630" viewBox="0 0 1200 630" fill="none" xmlns="http://www.w3.org/2000/svg">
  <defs>
    <linearGradient id="bg" x1="0" y1="0" x2="1200" y2="630" gradientUnits="userSpaceOnUse">
      <stop stop-color="#111827"/>
      <stop offset="1" stop-color="#1F2937"/>
    </linearGradient>
    <linearGradient id="glow" x1="0" y1="0" x2="1" y2="1">
      <stop stop-color="#FB923C" stop-opacity="0.24"/>
      <stop offset="1" stop-color="#F97316" stop-opacity="0"/>
    </linearGradient>
    <filter id="shadow" x="-20%" y="-20%" width="140%" height="140%">
      <feDropShadow dx="0" dy="18" stdDeviation="24" flood-color="#000000" flood-opacity="0.24"/>
    </filter>
  </defs>

  <rect width="1200" height="630" fill="url(#bg)"/>
  <circle cx="1010" cy="110" r="240" fill="url(#glow)"/>
  <circle cx="1120" cy="540" r="220" fill="url(#glow)"/>

  <rect x="64" y="64" width="1072" height="502" rx="30" fill="#0F172A" fill-opacity="0.72" stroke="#334155"/>

  <g opacity="0.08">
    <rect x="870" y="130" width="80" height="80" rx="16" fill="#FB923C"/>
    <rect x="968" y="130" width="80" height="80" rx="16" fill="#F97316"/>
    <rect x="1066" y="130" width="80" height="80" rx="16" fill="#EA580C"/>
    <rect x="968" y="228" width="80" height="80" rx="16" fill="#F97316"/>
    <rect x="968" y="326" width="80" height="80" rx="16" fill="#FB923C"/>
  </g>

  <g filter="url(#shadow)">
    <rect x="118" y="144" width="176" height="176" rx="36" fill="#1E293B" stroke="#475569"/>
    <rect x="151" y="177" width="40" height="40" rx="8" fill="#F97316"/>
    <rect x="199" y="177" width="40" height="40" rx="8" fill="#FB923C"/>
    <rect x="247" y="177" width="40" height="40" rx="8" fill="#F97316"/>
    <rect x="199" y="225" width="40" height="40" rx="8" fill="#EA580C"/>
    <rect x="199" y="273" width="40" height="40" rx="8" fill="#F97316"/>
  </g>

  <text x="350" y="220" fill="#F8FAFC" font-family="Segoe UI, Arial, sans-serif" font-size="82" font-weight="700" letter-spacing="-1.5">
    Tessera
  </text>
  <text x="350" y="292" fill="#FB923C" font-family="Segoe UI, Arial, sans-serif" font-size="34" font-weight="600" letter-spacing="2">
    AI PROJECT GENERATOR
  </text>
  <text x="120" y="412" fill="#CBD5E1" font-family="Segoe UI, Arial, sans-serif" font-size="38" font-weight="400">
    Describe it. AI builds it.
  </text>
  <text x="120" y="468" fill="#94A3B8" font-family="Segoe UI, Arial, sans-serif" font-size="26" font-weight="400">
    From a short conversation to a complete, deployable web app.
  </text>

  <rect x="120" y="507" width="286" height="3" rx="1.5" fill="#F97316"/>
</svg>
